# xmcd
#
# Track frame offsets:
# 150
# 14337
# 67788
# 88906
#
# Disc length: 1306 seconds
#
# Revision: 0
# Processed by: cddbd v1.5.2PL0 Copyright (c) Steve Scherf et al.
# Submitted via: cdrdao 1.2.2
#
DISCID=28051804
DTITLE=Spararats - Spararats
DYEAR=2006
DGENRE=misc
TTITLE0=Paškarantīna
TTITLE1=Bailes no lelles skatiena [6 miesas]
TTITLE2=Ideālu vanckars
TTITLE3=Bezkontrole
EXTD=Sturmmandat 19A (2006)
EXTT0=
EXTT1=
EXTT2=
EXTT3=
PLAYORDER=
